/* XPM */
static char *_0a0d01909c94c75c3275919d89c8ff5bAtE5BdPPdV4RG7C[] = {
/* columns rows colors chars-per-pixel */
"32 32 8 1 ",
"  c #3F3F3F",
". c #78452B",
"X c #A1542F",
"o c #DE5531",
"O c #A9A9A9",
"+ c #ECE7D9",
"@ c #CCF7F8",
"# c #EFEFEF",
/* pixels */
"++++++++++++++++oooooooooooooooo",
"++++++++++++++++oooooooooooooooo",
"++++++++++++++++oooooooooooooooo",
"++++++++++++++++oooooooooooooooo",
"++++++++++++++++oooooooooooooooo",
"++++++++++++++++oooooooooooooooo",
"++++++++++++++++oooooooooooooooo",
"++++++++++++++++oooooooooooooooo",
"XXXXXXXXXXXXXXXXOOOOOOOOOOOOOOOO",
"XXXXXXXXXXXXXXXXOOOOOOOOOOOOOOOO",
"XXXXXXXXXXXXXXXXOOOOOOOOOOOOOOOO",
"XXXXXXXXXXXXXXXXOOOOOOOOOOOOOOOO",
"XXXXXXXXXXXXXXXXOOOOOOOOOOOOOOOO",
"XXXXXXXXXXXXXXXXOOOOOOOOOOOOOOOO",
"XXXXXXXXXXXXXXXXOOOOOOOOOOOOOOOO",
"@@@@@@@@@@@@@@@@................",
"@@@@@@@@@@@@@@@@................",
"@@@@@@@@@@@@@@@@................",
"@@@@@@@@@@@@@@@@................",
"@@@@@@@@@@@@@@@@................",
"@@@@@@@@@@@@@@@@................",
"@@@@@@@@@@@@@@@@................",
"@@@@@@@@@@@@@@@@................",
"                ################",
"                ################",
"                ################",
"                ################",
"                ################",
"                ################",
"                ################",
"                ################",
"                ################"
};
