# Blender 4.4.0
# www.blender.org
o rocks-a
v 0.070702 2.898000 0.447705
v 0.045792 1.512000 0.454047
v -0.168348 2.898000 1.297216
v -0.186295 1.512000 1.278815
v -1.016608 1.512000 1.490205
v -1.614834 1.512000 0.876828
v -1.023571 2.898000 1.514948
v -1.639744 2.898000 0.883169
v -1.650189 -0.000000 -0.222155
v -1.382747 1.512000 0.052060
v -1.986033 0.000000 0.971332
v -0.552434 1.512000 -0.159330
v -1.400694 2.898000 0.033659
v -0.545471 2.898000 -0.184073
v -0.448677 -0.000000 -0.528050
v 0.416991 0.000000 0.359543
v 0.081147 0.000000 1.553031
v -1.120365 0.000000 1.858925
v -0.429664 2.260440 0.521255
v -0.410311 1.179360 0.504339
v -0.600405 2.260440 -0.344575
v -0.576078 1.179360 -0.336272
v 0.069028 1.179360 -0.900137
v 0.879903 1.179360 -0.623391
v 0.064055 2.260440 -0.925356
v 0.899256 2.260440 -0.640307
v 1.408180 0.000000 0.340942
v 1.045671 1.179360 0.217220
v 1.168303 -0.000000 -0.875472
v 0.400564 1.179360 0.781085
v 1.069997 2.260440 0.225523
v 0.405537 2.260440 0.806304
v 0.474672 0.000000 1.156888
v -0.698711 0.000000 0.756420
v -0.938587 -0.000000 -0.459994
v -0.005080 -0.000000 -1.275940
v 1.434458 1.401473 0.727144
v 1.428448 0.731203 0.702153
v 0.588196 1.401473 0.476837
v 0.606834 0.731203 0.459136
v 0.406486 0.731203 -0.373911
v 1.027752 0.731203 -0.963941
v 0.381837 1.401473 -0.381201
v 1.021741 1.401473 -0.988932
v 2.127108 -0.000000 -0.984702
v 1.849365 0.731203 -0.720924
v 0.938184 -0.000000 -1.336362
v 2.049714 0.731203 0.112123
v 1.868003 1.401473 -0.738625
v 2.074362 1.401473 0.119414
v 2.417023 0.000000 0.220766
v 1.518015 0.000000 1.074574
v 0.329091 0.000000 0.722914
v 0.039176 -0.000000 -0.482554
v 0.618348 1.107163 0.903785
v 0.599506 0.577651 0.911355
v 0.519983 1.107163 1.593989
v 0.504006 0.577651 1.581456
v -0.124068 0.577651 1.833801
v -0.656643 0.577651 1.416045
v -0.126933 1.107163 1.853904
v -0.675485 1.107163 1.423616
v -0.799235 0.000000 0.559183
v -0.561143 0.577651 0.745944
v -0.937429 0.000000 1.528859
v 0.066932 0.577651 0.493599
v -0.577120 1.107163 0.733412
v 0.069797 1.107163 0.473496
v 0.109626 0.000000 0.194025
v 0.880292 0.000000 0.798542
v 0.742098 0.000000 1.768218
v -0.166763 0.000000 2.133376
v -1.238104 1.107163 0.157669
v -1.255126 0.577650 0.168742
v -1.201095 1.107163 0.853865
v -1.219195 0.577651 0.844659
v -1.786592 0.577651 1.213735
v -2.389919 0.577651 0.906893
v -1.785514 1.107163 1.234013
v -2.406941 1.107163 0.917966
v -2.695572 0.000000 0.093799
v -2.425850 0.577650 0.230976
v -2.643579 0.000000 1.071892
v -1.858453 0.577650 -0.138100
v -2.443949 1.107163 0.221770
v -1.859531 1.107163 -0.158378
v -1.874516 -0.000000 -0.440275
v -1.001466 0.000000 0.003743
v -0.949472 0.000000 0.981836
v -1.770528 0.000000 1.515910
v 0.322538 1.107163 -1.059805
v 0.302370 0.577650 -1.057443
v 0.046527 1.107163 -0.419590
v 0.034398 0.577650 -0.435875
v -0.637882 0.577650 -0.357162
v -1.042189 0.577650 -0.900016
v -0.645921 1.107163 -0.338515
v -1.062358 1.107163 -0.897655
v -0.954966 -0.000000 -1.764272
v -0.774217 0.577650 -1.521584
v -1.342738 -0.000000 -0.864827
v -0.101938 0.577650 -1.600298
v -0.786346 1.107163 -1.537870
v -0.093898 1.107163 -1.618945
v 0.017862 -0.000000 -1.878175
v 0.602919 -0.000000 -1.092633
v 0.215147 -0.000000 -0.193187
v -0.757681 -0.000000 -0.079284
v 1.600013 1.401473 -0.420709
v 1.288828 1.401473 -0.640537
v 1.380185 1.401473 -0.109523
v 1.069000 1.401473 -0.329351
v 1.300248 1.655473 -0.574160
v 1.533637 1.655473 -0.409289
v 1.135376 1.655473 -0.340771
v 1.368765 1.655473 -0.175900
v 1.067422 0.000000 1.609593
v 1.432776 0.000000 1.717657
v 1.175487 0.000000 1.244239
v 1.540840 0.000000 1.352304
v 1.400615 0.254000 1.658480
v 1.126600 0.254000 1.577431
v 1.481663 0.254000 1.384465
v 1.207648 0.254000 1.303416
v -1.668419 -0.000000 -1.087025
v -2.044858 -0.000000 -1.028244
v -1.609638 -0.000000 -0.710587
v -1.986077 -0.000000 -0.651806
v -1.990455 0.254000 -0.988537
v -1.708127 0.254000 -1.032623
v -1.946369 0.254000 -0.706208
v -1.664041 0.254000 -0.750294
v 1.959962 0.000000 1.579689
v 2.071367 0.000000 1.301141
v 1.681414 0.000000 1.468285
v 1.792819 0.000000 1.189737
v 2.022623 0.200000 1.322034
v 1.939069 0.200000 1.530945
v 1.813712 0.200000 1.238481
v 1.730158 0.200000 1.447392
v 0.050934 1.107164 1.085957
v 0.198264 1.107164 1.347288
v 0.312265 1.107164 0.938627
v 0.459595 1.107164 1.199958
v 0.212514 1.307164 1.296205
v 0.102016 1.307164 1.100207
v 0.408512 1.307164 1.185708
v 0.298014 1.307164 0.989709
v 1.139749 -0.000000 -1.955697
v 1.100025 -0.000000 -2.253056
v 0.842390 -0.000000 -1.915974
v 0.802667 -0.000000 -2.213332
v 1.067821 0.200000 -2.210920
v 1.097613 0.200000 -1.987901
v 0.844802 0.200000 -2.181128
v 0.874594 0.200000 -1.958109
vn 0.8131 0.5790 0.0598
vn 0.6899 0.1536 0.7074
vn 0.9683 0.1376 0.2086
vn -0.6855 0.5791 0.4413
vn -0.5127 0.6571 0.5526
vn -0.9632 0.1102 0.2452
vn -0.9877 -0.1418 -0.0660
vn -0.6255 -0.4443 -0.6414
vn -0.7953 -0.5705 -0.2047
vn -0.4360 0.2945 -0.8504
vn -0.3024 0.1376 -0.9432
vn 0.2607 0.2712 -0.9265
vn 0.0562 -0.2807 -0.9581
vn 0.6665 -0.7094 0.2290
vn 0.7604 -0.5679 0.3150
vn -0.1489 -0.8353 0.5292
vn -0.7727 0.5742 0.2708
vn -0.9355 0.1511 -0.3193
vn -0.9535 0.1756 0.2451
vn -0.6902 0.1756 -0.7020
vn -0.1864 0.2687 -0.9450
vn -0.1341 0.7697 0.6242
vn -0.1979 0.6549 0.7293
vn 0.2317 -0.5442 -0.8063
vn -0.1930 -0.0687 -0.9788
vn 0.6879 -0.4066 -0.6013
vn -0.9785 -0.2063 0.0060
vn -0.1952 -0.2608 0.9455
vn -0.1900 -0.5427 0.8181
vn 0.1900 -0.1899 0.9632
vn 0.8174 0.5744 -0.0431
vn 0.7592 0.6505 -0.0218
vn 0.9260 0.2063 0.3161
vn -0.1961 0.5642 0.8020
vn -0.7172 0.1475 0.6811
vn -0.2373 0.2746 0.9318
vn -0.5351 0.5598 -0.6327
vn -0.5527 0.6498 -0.5219
vn -0.2326 0.1034 -0.9671
vn 0.3361 -0.0614 -0.9398
vn -0.2337 0.0296 -0.9719
vn -0.8140 0.5613 0.1496
vn 0.8633 0.4248 -0.2726
vn 0.9232 0.2745 -0.2688
vn 0.9252 0.2628 0.2737
vn -0.3021 -0.6057 0.7361
vn 0.7144 -0.4704 0.5181
vn -0.2888 -0.4762 0.8306
vn -0.6230 -0.7602 -0.1842
vn 0.8220 0.5642 0.0773
vn 0.7782 0.1475 0.6104
vn 0.9564 0.2746 0.0992
vn -0.4544 0.4556 0.7655
vn -0.5598 0.2745 0.7818
vn -0.0988 0.7138 0.6934
vn -0.1469 -0.2973 -0.9434
vn -0.3137 0.2745 -0.9090
vn 0.1344 -0.3047 -0.9429
vn 0.7722 -0.6057 0.1918
vn 0.8637 -0.4762 0.1648
vn -0.0916 -0.7602 0.6432
vn -0.7794 -0.6215 -0.0788
vn 0.0751 0.8468 -0.5266
vn -0.6124 0.7833 -0.1071
vn -0.3704 0.6456 0.6679
vn 0.9173 0.3971 -0.0300
vn 0.5833 0.7182 -0.3794
vn 0.7602 0.6496 0.0064
vn -0.2977 0.4556 0.8389
vn -0.3980 0.2745 0.8754
vn 0.0372 0.7138 0.6994
vn -0.9981 -0.0614 -0.0028
vn -0.8379 0.0296 0.5450
vn 0.6298 0.7076 0.3203
vn -0.5454 0.4248 -0.7226
vn -0.5619 0.2745 -0.7804
vn -0.3380 -0.4704 -0.8152
vn -0.8913 0.0006 -0.4533
vn 0.5234 -0.4759 0.7068
vn 0.0345 -0.7602 0.6488
vn 0.2212 0.7645 -0.6056
vn 0.3613 -0.4762 -0.8017
vn 0.8352 0.3971 0.3805
vn 0.6911 0.7182 -0.0809
vn 0.6783 0.6496 0.3434
vn 0.8969 0.2746 0.3467
vn -0.9253 -0.2186 -0.3098
vn -0.5685 -0.3070 -0.7633
vn -0.7950 -0.4764 -0.3755
vn -0.1678 0.4248 -0.8896
vn -0.1569 0.2745 -0.9487
vn 0.3820 0.2628 -0.8860
vn 0.1057 -0.2973 -0.9489
vn -0.6774 -0.4761 0.5607
vn 0.0472 0.6498 0.7587
vn -0.5326 0.6456 0.5473
vn -0.3771 -0.3047 0.8746
vn 0.5916 0.3683 -0.7172
vn 0.2905 -0.6016 -0.7441
vn -0.1660 0.2033 -0.9649
vn 0.9820 0.0848 -0.1689
vn -0.7359 0.4042 -0.5431
vn -0.9576 0.2363 0.1648
vn 0.7127 -0.6082 0.3495
vn -0.3065 -0.0347 0.9512
vn -0.4058 0.7650 0.5000
vn -0.8755 0.0848 0.4758
vn 0.8715 0.4042 0.2776
vn 0.7678 -0.6126 0.1875
vn 0.8537 0.2363 -0.4640
vn -0.7873 -0.6082 -0.1017
vn 0.3002 0.7825 -0.5454
vn -0.0562 0.9955 0.0769
vn -0.1957 0.7854 -0.5872
vn -0.5493 0.7650 0.3361
vn 0.5804 0.7825 -0.2254
vn 0.2299 -0.0751 0.9703
vn 0.1924 -0.6115 0.7675
vn -0.2489 -0.9626 0.1067
vn 0.7189 -0.6126 0.3284
vn -0.4662 -0.6016 0.6486
vn 0.3592 -0.6115 -0.7051
vn 0.0702 0.9840 0.1639
vn -0.6288 0.7758 -0.0515
vn -0.1022 0.7825 0.6142
vn 0.8351 0.3683 0.4087
vn 0.0728 -0.9626 -0.2608
vn -0.7063 -0.6126 0.3547
vn -0.2135 -0.6016 -0.7697
vn 0.3246 -0.6115 0.7216
vn 0.0918 0.9955 0.0256
vn -0.4813 0.7854 0.3893
vn 0.5075 0.7650 0.3965
vn -0.4147 0.7825 -0.4644
vn 0.2152 -0.9351 -0.2817
vn -0.7935 -0.6082 -0.0209
vn -0.0333 -0.6115 -0.7906
vn -0.0757 0.9955 -0.0578
vn 0.5914 0.7854 -0.1827
vn -0.3239 0.7650 -0.5566
vn 0.7431 -0.6016 -0.2930
vn 0.7111 0.6568 0.2508
vn -0.2072 0.6441 0.7364
vn 0.8215 -0.5447 -0.1687
vn -0.2601 0.6496 0.7144
vn 0.2781 -0.4764 -0.8341
vn 0.7446 0.6496 0.1534
vn -0.8657 -0.4764 -0.1537
vn -0.8338 0.1034 0.5423
vn -0.7453 0.2745 0.6076
vn 0.6948 -0.6057 0.3877
vn 0.7902 -0.4762 0.3857
vn 0.5736 0.7825 0.2421
vn -0.0843 -0.6126 -0.7859
vn 0.7957 -0.6016 0.0701
vn 0.2126 0.7825 0.5852
vt 0.343750 0.132358
vt 0.343750 0.194464
vt 0.343750 0.064605
vt 0.343750 0.133955
vt 0.343750 0.113085
vt 0.343750 0.156721
vt 0.343750 0.148613
vt 0.343750 0.148912
vt 0.343750 0.148287
vt 0.343750 0.129814
vt 0.343750 0.137179
vt 0.343750 0.121780
vt 0.343750 0.182514
vt 0.343750 0.140207
vt 0.343750 0.094054
vt 0.343750 0.205906
vt 0.343750 0.144563
vt 0.343750 0.077643
vt 0.343750 0.175000
vt 0.343750 0.075000
s 1
f 2/1/1 3/2/2 4/1/3
f 6/1/4 7/2/5 8/2/6
f 11/3/7 10/1/8 9/3/9
f 10/1/8 11/3/7 6/1/4
f 13/2/10 12/1/11 10/1/8
f 12/1/11 13/2/10 14/2/12
f 15/3/13 10/1/8 12/1/11
f 17/3/14 15/3/13 16/3/15
f 15/3/13 17/3/14 18/3/16
f 15/3/13 18/3/16 11/3/7
f 17/3/14 2/1/1 4/1/3
f 12/1/11 16/3/15 15/3/13
f 16/3/15 12/1/11 2/1/1
f 8/2/6 10/1/8 6/1/4
f 20/4/17 21/5/18 22/4/19
f 21/5/18 23/4/20 22/4/19
f 23/4/20 21/5/18 25/5/21
f 32/5/22 21/5/18 19/5/23
f 23/4/20 29/6/24 36/6/25
f 29/6/24 23/4/20 24/4/26
f 35/6/27 20/4/17 22/4/19
f 22/4/19 36/6/25 35/6/27
f 30/4/28 34/6/29 33/6/30
f 28/4/31 26/5/32 31/5/33
f 32/5/22 20/4/17 30/4/28
f 38/7/34 39/8/35 40/7/36
f 42/7/37 43/8/38 44/8/39
f 46/7/40 47/9/41 42/7/37
f 41/7/42 39/8/35 43/8/38
f 49/8/43 48/7/44 46/7/40
f 48/7/44 49/8/43 50/8/45
f 53/9/46 51/9/47 52/9/48
f 51/9/47 53/9/46 54/9/49
f 43/8/38 50/8/45 49/8/43
f 43/8/38 49/8/43 44/8/39
f 41/7/42 47/9/41 54/9/49
f 40/7/36 54/9/49 53/9/46
f 54/9/49 40/7/36 41/7/42
f 48/7/44 52/9/48 51/9/47
f 52/9/48 48/7/44 38/7/34
f 46/7/40 44/8/39 49/8/43
f 50/8/45 38/7/34 48/7/44
f 56/10/50 57/11/51 58/10/52
f 61/11/53 60/10/54 59/10/55
f 69/12/56 64/10/57 66/10/58
f 71/12/59 69/12/56 70/12/60
f 69/12/56 71/12/59 72/12/61
f 69/12/56 72/12/61 65/12/62
f 57/11/51 68/11/63 61/11/53
f 61/11/53 68/11/63 67/11/64
f 61/11/53 67/11/64 62/11/65
f 59/10/55 65/12/62 72/12/61
f 65/12/62 59/10/55 60/10/54
f 56/10/50 71/12/59 70/12/60
f 58/10/52 72/12/61 71/12/59
f 72/12/61 58/10/52 59/10/55
f 66/10/58 70/12/60 69/12/56
f 70/12/60 66/10/58 56/10/50
f 64/10/57 62/11/65 67/11/64
f 75/13/66 74/14/67 73/13/68
f 79/13/69 78/14/70 77/14/71
f 82/14/72 83/15/73 78/14/70
f 75/13/66 77/14/71 76/14/74
f 77/14/71 75/13/66 79/13/69
f 85/13/75 84/14/76 82/14/72
f 82/14/72 87/15/77 81/15/78
f 87/15/77 89/15/79 90/15/80
f 87/15/77 83/15/73 81/15/78
f 86/13/81 75/13/66 73/13/68
f 75/13/66 86/13/81 79/13/69
f 84/14/76 88/15/82 87/15/77
f 88/15/82 84/14/76 74/14/67
f 86/13/81 74/14/67 84/14/76
f 93/16/83 92/17/84 91/16/85
f 92/17/84 93/16/83 94/17/86
f 101/18/87 100/17/88 99/18/89
f 103/16/90 102/17/91 100/17/88
f 102/17/91 103/16/90 104/16/92
f 105/18/93 100/17/88 102/17/91
f 105/18/93 108/18/94 101/18/87
f 105/18/93 101/18/87 99/18/89
f 104/16/92 93/16/83 91/16/85
f 93/16/83 104/16/92 97/16/95
f 97/16/95 103/16/90 98/16/96
f 108/18/94 94/17/86 95/17/97
f 100/17/88 98/16/96 103/16/90
f 92/17/84 104/16/92 91/16/85
f 113/19/98 109/20/99 110/20/100
f 109/20/99 113/19/98 114/19/101
f 115/19/102 110/20/100 112/20/103
f 114/19/101 111/20/104 109/20/99
f 117/20/105 121/19/106 122/19/107
f 123/19/108 118/20/109 120/20/110
f 118/20/109 123/19/108 121/19/106
f 122/19/107 119/20/111 117/20/105
f 119/20/111 123/19/108 120/20/110
f 123/19/108 119/20/111 124/19/112
f 131/19/113 130/19/114 129/19/115
f 130/19/114 131/19/113 132/19/116
f 127/20/117 131/19/113 128/20/118
f 131/19/113 127/20/117 132/19/116
f 135/20/119 134/20/120 133/20/121
f 134/20/120 135/20/119 136/20/122
f 138/19/123 139/19/124 140/19/125
f 137/19/126 133/20/121 134/20/120
f 135/20/119 138/19/123 140/19/125
f 139/19/124 135/20/119 140/19/125
f 143/20/127 142/20/128 141/20/129
f 142/20/128 143/20/127 144/20/130
f 147/19/131 146/19/132 145/19/133
f 146/19/132 147/19/131 148/19/134
f 145/19/133 141/20/129 142/20/128
f 147/19/131 142/20/128 144/20/130
f 142/20/128 147/19/131 145/19/133
f 146/19/132 143/20/127 141/20/129
f 143/20/127 146/19/132 148/19/134
f 143/20/127 147/19/131 144/20/130
f 147/19/131 143/20/127 148/19/134
f 150/20/135 151/20/136 152/20/137
f 155/19/138 154/19/139 153/19/140
f 153/19/140 149/20/141 150/20/135
f 149/20/141 153/19/140 154/19/139
f 155/19/138 150/20/135 152/20/137
f 150/20/135 155/19/138 153/19/140
f 3/2/2 2/1/1 1/2/142
f 7/2/5 6/1/4 5/1/143
f 3/2/2 5/1/143 4/1/3
f 5/1/143 3/2/2 7/2/5
f 10/1/8 15/3/13 9/3/9
f 15/3/13 11/3/7 9/3/9
f 14/2/12 3/2/2 1/2/142
f 3/2/2 14/2/12 7/2/5
f 7/2/5 14/2/12 13/2/10
f 7/2/5 13/2/10 8/2/6
f 5/1/143 11/3/7 18/3/16
f 11/3/7 5/1/143 6/1/4
f 2/1/1 17/3/14 16/3/15
f 4/1/3 18/3/16 17/3/14
f 18/3/16 4/1/3 5/1/143
f 10/1/8 8/2/6 13/2/10
f 14/2/12 2/1/1 12/1/11
f 2/1/1 14/2/12 1/2/142
f 21/5/18 20/4/17 19/5/23
f 25/5/21 24/4/26 23/4/20
f 24/4/26 25/5/21 26/5/32
f 29/6/24 28/4/31 27/6/144
f 28/4/31 29/6/24 24/4/26
f 31/5/33 30/4/28 28/4/31
f 30/4/28 31/5/33 32/5/22
f 28/4/31 33/6/30 27/6/144
f 33/6/30 28/4/31 30/4/28
f 35/6/27 33/6/30 34/6/29
f 33/6/30 35/6/27 36/6/25
f 33/6/30 36/6/25 29/6/24
f 33/6/30 29/6/24 27/6/144
f 21/5/18 32/5/22 25/5/21
f 25/5/21 32/5/22 31/5/33
f 25/5/21 31/5/33 26/5/32
f 20/4/17 35/6/27 34/6/29
f 36/6/25 22/4/19 23/4/20
f 34/6/29 30/4/28 20/4/17
f 26/5/32 28/4/31 24/4/26
f 20/4/17 32/5/22 19/5/23
f 39/8/35 38/7/34 37/8/145
f 43/8/38 42/7/37 41/7/42
f 47/9/41 46/7/40 45/9/146
f 39/8/35 41/7/42 40/7/36
f 46/7/40 51/9/47 45/9/146
f 51/9/47 46/7/40 48/7/44
f 51/9/47 54/9/49 47/9/41
f 51/9/47 47/9/41 45/9/146
f 50/8/45 39/8/35 37/8/145
f 39/8/35 50/8/45 43/8/38
f 47/9/41 41/7/42 42/7/37
f 38/7/34 53/9/46 52/9/48
f 53/9/46 38/7/34 40/7/36
f 44/8/39 46/7/40 42/7/37
f 38/7/34 50/8/45 37/8/145
f 57/11/51 56/10/50 55/11/147
f 60/10/54 61/11/53 62/11/65
f 65/12/62 64/10/57 63/12/148
f 64/10/57 65/12/62 60/10/54
f 57/11/51 59/10/55 58/10/52
f 59/10/55 57/11/51 61/11/53
f 67/11/64 66/10/58 64/10/57
f 66/10/58 67/11/64 68/11/63
f 64/10/57 69/12/56 63/12/148
f 69/12/56 65/12/62 63/12/148
f 68/11/63 57/11/51 55/11/147
f 71/12/59 56/10/50 58/10/52
f 62/11/65 64/10/57 60/10/54
f 68/11/63 56/10/50 66/10/58
f 56/10/50 68/11/63 55/11/147
f 74/14/67 75/13/66 76/14/74
f 78/14/70 79/13/69 80/13/149
f 83/15/73 82/14/72 81/15/78
f 84/14/76 85/13/75 86/13/81
f 87/15/77 82/14/72 84/14/76
f 89/15/79 87/15/77 88/15/82
f 87/15/77 90/15/80 83/15/73
f 79/13/69 86/13/81 85/13/75
f 79/13/69 85/13/75 80/13/149
f 77/14/71 83/15/73 90/15/80
f 83/15/73 77/14/71 78/14/70
f 74/14/67 89/15/79 88/15/82
f 89/15/79 74/14/67 76/14/74
f 76/14/74 90/15/80 89/15/79
f 90/15/80 76/14/74 77/14/71
f 82/14/72 80/13/149 85/13/75
f 80/13/149 82/14/72 78/14/70
f 74/14/67 86/13/81 73/13/68
f 97/16/95 96/17/150 95/17/97
f 96/17/150 97/16/95 98/16/96
f 100/17/88 101/18/87 96/17/150
f 93/16/83 95/17/97 94/17/86
f 95/17/97 93/16/83 97/16/95
f 100/17/88 105/18/93 99/18/89
f 107/18/151 105/18/93 106/18/152
f 105/18/93 107/18/151 108/18/94
f 97/16/95 104/16/92 103/16/90
f 95/17/97 101/18/87 108/18/94
f 101/18/87 95/17/97 96/17/150
f 92/17/84 107/18/151 106/18/152
f 107/18/151 92/17/84 94/17/86
f 94/17/86 108/18/94 107/18/151
f 102/17/91 106/18/152 105/18/93
f 106/18/152 102/17/91 92/17/84
f 98/16/96 100/17/88 96/17/150
f 104/16/92 92/17/84 102/17/91
f 111/20/104 110/20/100 109/20/99
f 110/20/100 111/20/104 112/20/103
f 115/19/102 114/19/101 113/19/98
f 114/19/101 115/19/102 116/19/153
f 110/20/100 115/19/102 113/19/98
f 111/20/104 114/19/101 116/19/153
f 111/20/104 115/19/102 112/20/103
f 115/19/102 111/20/104 116/19/153
f 119/20/111 118/20/109 117/20/105
f 118/20/109 119/20/111 120/20/110
f 123/19/108 122/19/107 121/19/106
f 122/19/107 123/19/108 124/19/112
f 121/19/106 117/20/105 118/20/109
f 119/20/111 122/19/107 124/19/112
f 127/20/117 126/20/154 125/20/155
f 126/20/154 127/20/117 128/20/118
f 129/19/115 125/20/155 126/20/154
f 125/20/155 129/19/115 130/19/114
f 131/19/113 126/20/154 128/20/118
f 126/20/154 131/19/113 129/19/115
f 130/19/114 127/20/117 125/20/155
f 127/20/117 130/19/114 132/19/116
f 139/19/124 138/19/123 137/19/126
f 133/20/121 137/19/126 138/19/123
f 139/19/124 134/20/120 136/20/122
f 134/20/120 139/19/124 137/19/126
f 138/19/123 135/20/119 133/20/121
f 135/20/119 139/19/124 136/20/122
f 141/20/129 145/19/133 146/19/132
f 151/20/136 150/20/135 149/20/141
f 154/19/139 155/19/138 156/19/156
f 154/19/139 151/20/136 149/20/141
f 151/20/136 154/19/139 156/19/156
f 151/20/136 155/19/138 152/20/137
f 155/19/138 151/20/136 156/19/156
